# xmcd
#
# Track frame offsets:
#  150
#  18707
#  40465
#  62755
#  81381
#  100627
#  119135
#  141321
#  159641
#
# Disc length: 2379 seconds
#
# Revision: 0
# Processed by: cddbd v1.5.1PL0 Copyright (c) Steve Scherf et al.
# Submitted via: Collectorz.com_Music_Collector 6.9
#
DISCID=82094909
DTITLE=Nelson King - Electric
DYEAR=2004
DGENRE=Blues -  Blues Electric
TTITLE0=Gotta Be Nice
TTITLE1=I Want You
TTITLE2=Good Day
TTITLE3=I Can Roll
TTITLE4=I'm Blinded
TTITLE5=Running On Empty
TTITLE6=Can It Hurt
TTITLE7=The Fumble
TTITLE8=What Am I
EXTD=
EXTT0=
EXTT1=
EXTT2=
EXTT3=
EXTT4=
EXTT5=
EXTT6=
EXTT7=
EXTT8=
PLAYORDER=
